<?xml version="1.0" encoding="UTF-8"?>
<svg xmlns="http://www.w3.org/2000/svg" width="1002" height="395" viewBox="0 0 1002 395">
  <g fill="none" transform="translate(1 1)">
    <path fill="#E5422B" d="M138.522727 59.2045455C131.931818 59.2045455 128.295455 55 129.204545 48.9772727 130.227273 42.8409091 135.227273 38.75 141.704545 38.75 145.113636 38.75 148.181818 40.3409091 150 42.7272727L156.363636 37.5C152.954545 33.6363636 148.068182 31.7045455 142.840909 31.7045455 132.159091 31.7045455 122.840909 38.8636364 121.25 48.9772727 119.659091 59.2045455 126.477273 66.25 137.272727 66.25 142.727273 66.25 148.181818 63.9772727 152.954545 60.2272727L148.409091 55C145.113636 57.9545455 141.704545 59.2045455 138.522727 59.2045455M181.25 32.0454545C181.25 32.0454545 179.886364 31.8181818 179.772727 31.8181818 178.295455 31.5909091 176.704545 31.7045455 175.227273 31.8181818 173.863636 31.9318182 172.5 32.1590909 171.136364 32.6136364 170 32.9545455 168.75 33.4090909 167.727273 34.0909091L167.954545 32.5 160.227273 32.5 155 65.4545455 162.727273 65.4545455 165.795455 46.25C165.909091 45.1136364 166.363636 44.0909091 166.931818 43.1818182 167.5 42.2727273 168.295455 41.4772727 169.204545 40.9090909 170.113636 40.2272727 171.022727 39.7727273 172.045455 39.4318182 173.068182 39.0909091 174.090909 38.8636364 175.227273 38.75 176.704545 38.6363636 178.295455 38.75 179.772727 39.0909091 179.772727 39.0909091 179.886364 39.0909091 179.886364 39.0909091 180.113636 39.0909091 181.25 32.0454545 181.25 32.0454545M208.295455 34.5454545C206.136364 32.7272727 202.840909 31.7045455 198.977273 31.7045455 189.318182 31.7045455 180.568182 38.6363636 178.863636 48.8636364 177.272727 59.0909091 183.977273 66.0227273 193.295455 66.0227273 197.5 66.0227273 201.022727 65.4545455 203.977273 63.4090909L203.75 65.2272727 210.795455 65.2272727 215.909091 32.5 208.636364 32.5 208.295455 34.5454545zM206.704545 48.8636364L206.704545 48.8636364C205.681818 55.1136364 201.022727 59.4318182 195 59.4318182 188.863636 59.4318182 185.340909 54.8863636 186.363636 48.75 187.386364 42.6136364 192.272727 38.2954545 198.295455 38.2954545 204.318182 38.4090909 207.613636 42.6136364 206.704545 48.8636364L206.704545 48.8636364zM251.590909 32.5L253.068182 23.1818182 244.204545 29.5454545 243.75 32.6136364 233.75 32.6136364 234.772727 26.3636364C235.340909 23.4090909 238.522727 23.5227273 238.522727 23.5227273L242.272727 23.5227273 243.409091 16.7045455 239.090909 16.7045455 238.068182 16.7045455C227.5 16.7045455 227.159091 24.8863636 227.159091 24.8863636L226.477273 28.75 225.909091 32.6136364 225.227273 32.6136364 216.590909 39.4318182 224.772727 39.4318182 219.545455 72.7272727 227.5 72.7272727 232.727273 39.3181818 242.727273 39.3181818 238.636364 65.4545455 246.477273 65.4545455 250.568182 39.3181818 260.340909 39.3181818 261.477273 32.5 251.590909 32.5zM272.613636 48.9772727C274.204545 38.8636364 283.409091 31.7045455 294.204545 31.7045455 299.431818 31.7045455 304.318182 33.75 307.727273 37.5L301.363636 42.7272727C299.545455 40.3409091 296.477273 38.75 293.068182 38.75 286.590909 38.75 281.590909 42.9545455 280.568182 48.9772727 279.659091 55 283.295455 59.2045455 289.886364 59.2045455 293.068182 59.2045455 296.477273 57.9545455 299.772727 55L304.318182 60.2272727C299.545455 64.0909091 294.090909 66.25 288.636364 66.25 277.840909 66.25 271.022727 59.2045455 272.613636 48.9772727M364.659091 45.4545455L361.590909 65.4545455 353.863636 65.4545455 356.931818 46.0227273C357.727273 41.4772727 355.227273 38.75 350.795455 38.75 346.136364 38.75 341.477273 41.5909091 340.795455 46.25L337.727273 65.4545455 330 65.4545455 333.068182 46.0227273C333.75 41.5909091 331.136364 38.8636364 326.931818 38.75 322.613636 38.9772727 317.613636 41.7045455 316.931818 46.25L313.863636 65.4545455 306.136364 65.4545455 311.363636 32.5 319.090909 32.5 318.863636 34.0909091C321.477273 32.5 324.431818 31.8181818 328.181818 31.7045455L328.863636 31.7045455C333.636364 31.7045455 337.5 33.6363636 339.545455 36.9318182 342.727273 33.6363636 347.613636 31.7045455 352.5 31.7045455 360.909091 31.7045455 366.022727 37.2727273 364.659091 45.4545455M364.318182 61.4772727L369.090909 55.5681818C371.704545 57.6136364 376.704545 59.2045455 380.909091 59.2045455 384.772727 59.2045455 388.636364 58.4090909 389.090909 55.7954545 389.431818 53.75 385.681818 53.0681818 381.477273 52.3863636 372.727273 50.9090909 368.295455 49.0909091 369.204545 42.5 370.568182 34.2045455 379.090909 31.8181818 386.136364 31.8181818 391.136364 31.8181818 396.363636 33.5227273 399.886364 35.9090909L395.113636 41.8181818C392.386364 40.1136364 388.863636 38.8636364 384.886364 38.8636364 380.227273 38.8636364 377.5 40.2272727 377.159091 42.3863636 376.931818 43.8636364 378.181818 44.4318182 383.636364 45.3409091 391.590909 46.7045455 398.181818 47.9545455 396.931818 55.5681818 395.909091 62.5 388.863636 66.3636364 379.659091 66.3636364 374.545455 66.25 367.954545 64.4318182 364.318182 61.4772727M86.9318182 0L10.2272727 0C4.54545455 0 0 4.54545455 0 10.2272727L0 86.9318182C0 92.6136364 4.54545455 97.1590909 10.2272727 97.1590909L86.9318182 97.1590909C92.5 97.1590909 97.1590909 92.6136364 97.1590909 86.9318182L97.1590909 10.2272727C97.1590909 4.54545455 92.6136364 0 86.9318182 0M48.4090909 59.2045455C51.5909091 59.2045455 55 57.9545455 58.2954545 55L62.8409091 60.2272727C58.0681818 64.0909091 52.6136364 66.25 47.1590909 66.25 36.3636364 66.25 29.5454545 59.0909091 31.1363636 48.9772727 32.7272727 38.8636364 41.9318182 31.7045455 52.7272727 31.7045455 57.9545455 31.7045455 62.8409091 33.75 66.25 37.5L59.8863636 42.7272727C58.0681818 40.3409091 55 38.75 51.5909091 38.75 45.1136364 38.75 40.1136364 42.9545455 39.0909091 48.9772727 38.1818182 55 41.8181818 59.2045455 48.4090909 59.2045455" transform="translate(300 147)"></path>
  </g>
</svg>
